<?xml version="1.0" encoding="UTF-8"?>
<svg version="1.1" xmlns="http://www.w3.org/2000/svg" width="854" height="352">
<path d="M0 0 C1.29701088 -0.01073296 1.29701088 -0.01073296 2.620224 -0.02168274 C3.56103821 -0.02437164 4.50185242 -0.02706055 5.47117615 -0.02983093 C6.46846237 -0.03640213 7.4657486 -0.04297333 8.49325562 -0.04974365 C11.79506 -0.06945895 15.09681887 -0.08113717 18.39866638 -0.09111023 C19.52865492 -0.09518576 20.65864346 -0.09926128 21.82287407 -0.10346031 C27.80720206 -0.12431641 33.79150718 -0.13861851 39.77586365 -0.147995 C45.94034436 -0.15904082 52.10446227 -0.19342135 58.26881504 -0.23316669 C63.02252853 -0.25938599 67.77615641 -0.26769171 72.52993584 -0.27127647 C74.80118693 -0.27613094 77.07243448 -0.28771217 79.34361458 -0.30631447 C82.53355762 -0.33081187 85.72257297 -0.32972096 88.9125824 -0.32279968 C89.83922699 -0.33560974 90.76587158 -0.3484198 91.72059631 -0.36161804 C101.87245177 -0.28191246 110.3684223 2.89566432 117.69944763 9.92451477 C123.13681647 16.13709081 125.76852284 22.38444352 125.77174377 30.59472656 C125.7745636 31.70103424 125.77738342 32.80734192 125.7802887 33.94717407 C125.77725235 35.76066597 125.77725235 35.76066597 125.77415466 37.61079407 C125.77678314 39.5258374 125.77678314 39.5258374 125.77946472 41.47956848 C125.78402112 44.97723076 125.78225722 48.47486352 125.77908564 51.97252631 C125.77655442 55.63025476 125.77890155 59.28798068 125.7804718 62.94570923 C125.78229057 69.08488926 125.77989412 75.22405726 125.77513123 81.36323547 C125.7696819 88.46945459 125.77145729 95.57564505 125.77695763 102.68186349 C125.78148842 108.77872707 125.7821397 114.87558201 125.77951896 120.97244674 C125.77795693 124.61598132 125.77776056 128.2595024 125.78105545 131.90303612 C125.78446753 135.95928536 125.77974505 140.01548476 125.77415466 144.07173157 C125.77617889 145.28679886 125.77820313 146.50186615 125.7802887 147.75375366 C125.77746887 148.85160187 125.77464905 149.94945007 125.77174377 151.08056641 C125.77117824 152.52044938 125.77117824 152.52044938 125.77060127 153.98942089 C125.64476013 156.14717102 125.64476013 156.14717102 124.64476013 157.14717102 C122.28077545 157.24795222 119.94664702 157.28690317 117.58226013 157.27998352 C116.87577332 157.28094025 116.1692865 157.28189697 115.44139099 157.28288269 C113.9450522 157.28356435 112.44871046 157.28171107 110.95237732 157.27754211 C108.65445856 157.27219359 106.35673527 157.27748753 104.05882263 157.28388977 C102.60830136 157.28322899 101.15778022 157.28194782 99.70726013 157.27998352 C98.66976624 157.28301987 98.66976624 157.28301987 97.61131287 157.28611755 C92.75971237 157.26212326 92.75971237 157.26212326 91.64476013 156.14717102 C91.52232703 154.64400333 91.46699728 153.13528935 91.43943787 151.62739563 C91.41925598 150.65298523 91.3990741 149.67857483 91.37828064 148.67463684 C91.36180481 147.64334656 91.34532898 146.61205627 91.32835388 145.54951477 C91.30970276 144.6069281 91.29105164 143.66434143 91.27183533 142.69319153 C91.20330731 139.15711741 91.14330602 135.62088222 91.08226013 132.08467102 C90.93788513 124.18529602 90.79351013 116.28592102 90.64476013 108.14717102 C62.26476013 108.14717102 33.88476013 108.14717102 4.64476013 108.14717102 C4.3553817 123.89890752 4.3553817 123.89890752 4.0766449 139.65083313 C4.03853988 141.6170679 4.00007229 143.58329569 3.96116638 145.54951477 C3.94469055 146.58080505 3.92821472 147.61209534 3.91123962 148.67463684 C3.89105774 149.64904724 3.87087585 150.62345764 3.8500824 151.62739563 C3.83453812 152.47788986 3.81899384 153.32838409 3.80297852 154.20465088 C3.64476013 156.14717102 3.64476013 156.14717102 2.64476013 157.14717102 C0.28077545 157.24795222 -2.05335298 157.28690317 -4.41773987 157.27998352 C-5.12422668 157.28094025 -5.8307135 157.28189697 -6.55860901 157.28288269 C-8.0549478 157.28356435 -9.55128954 157.28171107 -11.04762268 157.27754211 C-13.34554144 157.27219359 -15.64326473 157.27748753 -17.94117737 157.28388977 C-19.39169864 157.28322899 -20.84221978 157.28194782 -22.29273987 157.27998352 C-23.33023376 157.28301987 -23.33023376 157.28301987 -24.38868713 157.28611755 C-29.24028763 157.26212326 -29.24028763 157.26212326 -30.35523987 156.14717102 C-30.46011233 154.47432707 -30.49488793 152.79705229 -30.50241089 151.12094116 C-30.51314384 149.48717529 -30.51314384 149.48717529 -30.52409363 147.82040405 C-30.52678253 146.61476303 -30.52947144 145.40912201 -30.53224182 144.16694641 C-30.54209862 142.27424515 -30.54209862 142.27424515 -30.55215454 140.3433075 C-30.57324067 136.14382712 -30.58356779 131.94434623 -30.59352112 127.74482727 C-30.59756834 126.29849669 -30.60168525 124.85216629 -30.6058712 123.40583611 C-30.62494052 116.604546 -30.63916239 109.80326681 -30.64748317 103.00195509 C-30.65723331 95.16189688 -30.68348685 87.32212268 -30.72398406 79.48216444 C-30.75422557 73.41834153 -30.76896002 67.35459957 -30.77226418 61.29070276 C-30.77460749 57.67186459 -30.78347171 54.05332918 -30.80872536 50.43457222 C-30.83651236 46.38685158 -30.83215055 42.33975661 -30.82521057 38.29194641 C-30.83802063 37.10452347 -30.85083069 35.91710052 -30.86402893 34.69369507 C-30.79721921 23.97003241 -28.05074589 15.96404537 -20.64430237 8.12763977 C-14.79718104 3.06878224 -7.73827115 0.04415385 0 0 Z M3.64476013 35.14717102 C3.54380449 37.80173295 3.50505015 40.42972278 3.51194763 43.08467102 C3.51099091 43.87994202 3.51003418 44.67521301 3.50904846 45.49458313 C3.5083667 47.17923563 3.51022071 48.86389073 3.51438904 50.54853821 C3.51973738 53.13616299 3.51444394 55.72361418 3.50804138 58.31123352 C3.50870216 59.94404641 3.50998333 61.57685918 3.51194763 63.20967102 C3.5099234 63.98882874 3.50789917 64.76798645 3.5058136 65.570755 C3.18636433 69.15511302 3.18636433 69.15511302 4.64476013 72.14717102 C7.31726081 72.24762155 9.96394595 72.28333751 12.63694763 72.27656555 C13.47429443 72.27831787 14.31164124 72.28007019 15.17436218 72.28187561 C17.95618227 72.28629503 20.73793934 72.28335582 23.51976013 72.27998352 C25.44407666 72.28065653 27.36839311 72.28162654 29.29270935 72.28288269 C33.33129178 72.28435979 37.36985214 72.28220473 41.40843201 72.27754211 C46.59744524 72.27184482 51.78640676 72.27512376 56.97541809 72.28111458 C60.95067233 72.28471988 64.92591422 72.28358175 68.90116882 72.28098679 C70.81502793 72.28031743 72.72888815 72.28114624 74.64274597 72.28346634 C77.31271863 72.28599235 79.98260633 72.282153 82.65257263 72.27656555 C83.45156982 72.27858978 84.25056702 72.28061401 85.07377625 72.28269958 C88.65540217 72.60334111 88.65540217 72.60334111 91.64476013 71.14717102 C91.74571577 68.49260909 91.78447012 65.86461926 91.77757263 63.20967102 C91.77900772 62.01676453 91.77900772 62.01676453 91.7804718 60.79975891 C91.78115356 59.11510642 91.77929956 57.43045131 91.77513123 55.74580383 C91.76978288 53.15817905 91.77507632 50.57072786 91.78147888 47.98310852 C91.7808181 46.35029564 91.77953694 44.71748286 91.77757263 43.08467102 C91.78060898 41.91593445 91.78060898 41.91593445 91.78370667 40.72358704 C92.10315593 37.13922902 92.10315593 37.13922902 90.64476013 34.14717102 C87.97225946 34.04672049 85.32557432 34.01100453 82.65257263 34.01777649 C81.81522583 34.01602417 80.97787903 34.01427185 80.11515808 34.01246643 C77.33333799 34.00804701 74.55158092 34.01098622 71.76976013 34.01435852 C69.8454436 34.01368551 67.92112715 34.0127155 65.99681091 34.01145935 C61.95822848 34.00998226 57.91966813 34.01213731 53.88108826 34.01679993 C48.69207502 34.02249722 43.50311351 34.01921828 38.31410217 34.01322746 C34.33884793 34.00962216 30.36360605 34.01076029 26.38835144 34.01335526 C24.47449233 34.01402461 22.56063211 34.0131958 20.64677429 34.0108757 C17.97680163 34.00834969 15.30691393 34.01218904 12.63694763 34.01777649 C11.83795044 34.01575226 11.03895325 34.01372803 10.21574402 34.01164246 C6.63411809 33.69100093 6.63411809 33.69100093 3.64476013 35.14717102 Z " fill="#FEFEFE" transform="translate(285.35523986816406,16.852828979492188)"/>
<path d="M0 0 C1.0374939 0.00303635 1.0374939 0.00303635 2.09594727 0.00613403 C2.80243408 0.00517731 3.5089209 0.00422058 4.23681641 0.00323486 C5.7331552 0.00255321 7.22949694 0.00440649 8.72583008 0.00857544 C11.02374884 0.01392396 13.32147213 0.00863003 15.61938477 0.00222778 C17.06990603 0.00288857 18.52042718 0.00416974 19.97094727 0.00613403 C20.66260986 0.0041098 21.35427246 0.00208557 22.06689453 0 C26.91849503 0.0239943 26.91849503 0.0239943 28.03344727 1.13894653 C28.14146884 2.6947325 28.18028251 4.25537512 28.19166565 5.81486511 C28.20145447 6.82593826 28.21124329 7.83701141 28.22132874 8.87872314 C28.22996193 10.55646317 28.22996193 10.55646317 28.23876953 12.26809692 C28.24866913 13.43867142 28.25856873 14.60924591 28.26876831 15.81529236 C28.29501781 19.03412582 28.31685429 22.25295378 28.3367703 25.47183156 C28.35859298 28.83244997 28.38599979 32.1930226 28.41282654 35.55360413 C28.46280386 41.92133673 28.50772392 48.28909468 28.5508489 54.65687698 C28.60501372 62.61512705 28.66589002 70.5733239 28.72680664 78.53152466 C28.83549039 92.7339578 28.93398104 106.9364392 29.03344727 121.13894653 C57.41344727 121.13894653 85.79344727 121.13894653 115.03344727 121.13894653 C115.0940332 112.4880481 115.15461914 103.83714966 115.21704102 94.92410278 C115.26265469 88.76557005 115.30889153 82.60704449 115.35603237 76.44852352 C115.41709505 68.46033902 115.47666243 60.47215226 115.53076172 52.48391724 C115.57358363 46.16157714 115.61985649 39.83927349 115.67032582 33.51698965 C115.6969429 30.16740046 115.72179627 26.81781859 115.74252129 23.46818733 C115.76648691 19.73477224 115.79655184 16.0014543 115.828125 12.26809692 C115.83388046 11.14960358 115.83963593 10.03111023 115.8455658 8.87872314 C115.85535461 7.86764999 115.86514343 6.85657684 115.87522888 5.81486511 C115.88168143 4.93086564 115.88813398 4.04686617 115.89478207 3.13607883 C116.03344727 1.13894653 116.03344727 1.13894653 117.03344727 0.13894653 C119.47005172 0.0381189 121.87769428 -0.0007795 124.31469727 0.00613403 C125.04338013 0.00517731 125.77206299 0.00422058 126.52282715 0.00323486 C128.06624437 0.00255318 129.60966443 0.00440666 131.15307617 0.00857544 C133.52342126 0.01392391 135.89357686 0.00863011 138.26391602 0.00222778 C139.76001019 0.00288857 141.25610424 0.00416973 142.75219727 0.00613403 C143.82250183 0.00309769 143.82250183 0.00309769 144.91442871 0 C149.91849535 0.02399462 149.91849535 0.02399462 151.03344727 1.13894653 C151.13605323 2.77384508 151.16864961 4.41317802 151.17388916 6.05128479 C151.1795993 7.11521957 151.18530945 8.17915436 151.19119263 9.27532959 C151.19286942 11.0417128 151.19286942 11.0417128 151.19458008 12.84378052 C151.19954498 14.07632065 151.20450989 15.30886078 151.20962524 16.57875061 C151.22176371 19.97183245 151.22920113 23.36485239 151.2336359 26.75794864 C151.23656514 28.87988028 151.24066991 31.00180651 151.24514008 33.12373543 C151.25882964 39.76805168 151.26848617 46.41235553 151.27234197 53.05668491 C151.27681068 60.71501154 151.29429691 68.3731586 151.32334256 76.03143066 C151.34502466 81.95512866 151.3550499 87.87877643 151.35638309 93.80251366 C151.3574275 97.33745694 151.3632559 100.87223178 151.3812027 104.4071331 C151.40088456 108.36133348 151.39636849 112.31531379 151.38989258 116.26956177 C151.39910736 117.4289325 151.40832214 118.58830322 151.41781616 119.7828064 C151.36369609 130.3685653 149.34954889 140.12536666 142.03344727 148.13894653 C132.73143569 155.69592958 123.76995817 157.45162434 112.06665039 157.3977356 C111.1141893 157.40124023 110.16172821 157.40474487 109.18040466 157.40835571 C106.05842619 157.41709745 102.9366777 157.41135067 99.81469727 157.40457153 C97.62951616 157.40592035 95.44433535 157.40786269 93.25915527 157.41036987 C88.68991221 157.4133109 84.12074759 157.40905635 79.55151367 157.39968872 C73.71104944 157.38829488 67.87076908 157.39485981 62.03031158 157.40683365 C57.52116525 157.41407981 53.0120621 157.41175166 48.50291443 157.40657806 C46.35005166 157.40524919 44.19718489 157.40686241 42.04432678 157.41153717 C39.02952773 157.4166478 36.01502153 157.40882865 33.00024414 157.3977356 C31.6814048 157.40380829 31.6814048 157.40380829 30.33592224 157.41000366 C20.3089071 157.34206626 12.08118484 155.33898926 4.03344727 149.13894653 C-2.84614499 142.01365455 -6.08957336 133.54467124 -6.09353638 123.68502808 C-6.0963562 122.6025882 -6.09917603 121.52014832 -6.1020813 120.40490723 C-6.10005707 119.22756012 -6.09803284 118.05021301 -6.09594727 116.83718872 C-6.09769958 115.58960785 -6.0994519 114.34202698 -6.10125732 113.05664062 C-6.1049002 109.64373389 -6.10405266 106.23088789 -6.10087824 102.81798458 C-6.09834424 99.24701291 -6.10069487 95.6760438 -6.1022644 92.10507202 C-6.10408211 86.11310358 -6.10168925 80.12114748 -6.09692383 74.12918091 C-6.09147204 67.19391989 -6.0932521 60.25868823 -6.09875023 53.32342792 C-6.10328088 47.37091658 -6.10393245 41.41841411 -6.10131156 35.46590161 C-6.0997498 31.90957231 -6.09955249 28.35325683 -6.10284805 24.79692841 C-6.10625995 20.83898262 -6.1015379 16.88107005 -6.09594727 12.92312622 C-6.0979715 11.73768219 -6.09999573 10.55223816 -6.1020813 9.33087158 C-6.09785156 7.72413071 -6.09785156 7.72413071 -6.09353638 6.08493042 C-6.09315935 5.14843029 -6.09278233 4.21193016 -6.09239388 3.24705124 C-5.84859916 -0.83702471 -3.54130256 0.01751403 0 0 Z " fill="#FEFEFE" transform="translate(440.966552734375,16.861053466796875)"/>
<path d="M0 0 C0.89854202 -0.00571014 1.79708405 -0.01142029 2.72285461 -0.01730347 C3.71657074 -0.01842133 4.71028687 -0.01953918 5.7341156 -0.02069092 C7.29513756 -0.02813828 7.29513756 -0.02813828 8.88769531 -0.03573608 C12.35009918 -0.05040729 15.81245716 -0.05716963 19.27488708 -0.06268311 C21.67567954 -0.06843261 24.07647198 -0.07419036 26.4772644 -0.07995605 C31.52219355 -0.0904816 36.5671067 -0.09631338 41.61204529 -0.09979248 C48.0694189 -0.10526578 54.52658042 -0.12926248 60.98388767 -0.15776443 C65.94851287 -0.17641591 70.9130874 -0.18159787 75.87774467 -0.18312836 C78.25752351 -0.18615217 80.63730151 -0.19417151 83.01704597 -0.20731354 C86.35388746 -0.22441814 89.69021649 -0.22248218 93.02708435 -0.21600342 C94.00663086 -0.2252182 94.98617737 -0.23443298 95.9954071 -0.243927 C104.83086341 -0.19034208 112.17527664 2.14297552 118.83348083 8.14044189 C124.43787687 15.25953956 125.14264979 21.76355917 125.13426208 30.50762939 C125.13854721 31.50118439 125.14283234 32.49473938 125.14724731 33.5184021 C125.15297524 35.6145756 125.15350224 37.71076898 125.14915466 39.8069458 C125.1459982 42.99788679 125.1694615 46.18789684 125.19480896 49.37872314 C125.1970826 51.42169073 125.19778515 53.4646608 125.19676208 55.50762939 C125.20597183 56.45371063 125.21518158 57.39979187 125.22467041 58.37454224 C125.16743654 66.65332698 123.35244702 73.32318264 117.63816833 79.53497314 C112.81408133 83.82653107 107.31897327 86.64155786 100.83348083 87.14044189 C101.70702753 91.61360344 104.24722432 94.25730069 107.20848083 97.57794189 C107.73925232 98.19121338 108.2700238 98.80448486 108.81687927 99.43634033 C111.51265672 102.54709832 114.25295348 105.60146394 117.07566833 108.59747314 C125.51348798 117.73107106 125.51348798 117.73107106 125.58348083 123.89044189 C125.15232141 127.82160131 125.15232141 127.82160131 123.83348083 129.14044189 C100.83278249 131.96857357 100.83278249 131.96857357 92.56199646 128.06964111 C89.12870201 125.32241833 87.03231926 121.80138995 84.93162537 117.98809814 C83.05265185 114.82667716 80.58104568 112.19300559 78.14598083 109.45294189 C74.21090008 104.84380919 70.40501265 100.14435066 66.68504333 95.35919189 C66.07402771 94.62700439 65.46301208 93.89481689 64.83348083 93.14044189 C63.79066956 91.84940552 63.79066956 91.84940552 62.72679138 90.5322876 C59.04647514 87.48983901 56.24905757 87.49308531 51.68894958 87.65216064 C50.53426933 87.66277275 50.53426933 87.66277275 49.35626221 87.67359924 C46.9101578 87.70147264 44.466387 87.76419053 42.02098083 87.82794189 C40.35760256 87.85303422 38.69418822 87.87584576 37.03074646 87.89630127 C32.96409926 87.95127519 28.89918495 88.03749263 24.83348083 88.14044189 C24.80842468 89.34692383 24.78336853 90.55340576 24.7575531 91.79644775 C24.66365561 96.2561985 24.5633925 100.71578702 24.46116638 105.175354 C24.41775042 107.10858374 24.37608041 109.04185348 24.33616638 110.97515869 C24.27862452 113.74782391 24.21488464 116.52028646 24.14988708 119.29278564 C24.12481834 120.59747047 24.12481834 120.59747047 24.09924316 121.92851257 C23.94735254 128.02657019 23.94735254 128.02657019 22.83348083 129.14044189 C20.84591056 129.24027247 18.85480564 129.27124943 16.86473083 129.27325439 C15.65430115 129.27454346 14.44387146 129.27583252 13.19676208 129.27716064 C11.92187927 129.27329346 10.64699646 129.26942627 9.33348083 129.26544189 C7.42115662 129.27124268 7.42115662 129.27124268 5.47019958 129.27716064 C3.65455505 129.27522705 3.65455505 129.27522705 1.80223083 129.27325439 C0.68268005 129.27212646 -0.43687073 129.27099854 -1.59034729 129.26983643 C-4.16651917 129.14044189 -4.16651917 129.14044189 -5.16651917 128.14044189 C-5.26477885 126.49785489 -5.29283879 124.85102857 -5.29350281 123.20550537 C-5.29632263 122.1369783 -5.29914246 121.06845123 -5.30204773 119.96754456 C-5.3000235 118.78516708 -5.29799927 117.60278961 -5.2959137 116.38458252 C-5.29766602 115.14733932 -5.29941833 113.91009613 -5.30122375 112.63536072 C-5.30488203 109.23254748 -5.30400879 105.82979469 -5.30084467 102.42698479 C-5.29832075 98.87333975 -5.30065869 95.31969738 -5.30223083 91.76605225 C-5.30405244 85.79725681 -5.30164646 79.82847374 -5.29689026 73.85968018 C-5.29144765 66.94949621 -5.29321032 60.03934175 -5.29871666 53.1291585 C-5.30324806 47.20645154 -5.30389821 41.28375349 -5.301278 35.36104536 C-5.29971536 31.81918828 -5.29952107 28.27734509 -5.30281448 24.73548889 C-5.30622745 20.78908126 -5.30150303 16.84270694 -5.2959137 12.89630127 C-5.29793793 11.7139238 -5.29996216 10.53154633 -5.30204773 9.31333923 C-5.29922791 8.24481216 -5.29640808 7.1762851 -5.29350281 6.07537842 C-5.29312578 5.14105736 -5.29274876 4.2067363 -5.29236031 3.24410248 C-5.06667249 -0.52867454 -3.33209609 0.0126247 0 0 Z M23.83348083 29.14044189 C23.73344794 31.27397363 23.70267036 33.41081731 23.70066833 35.54669189 C23.69937927 36.84735596 23.69809021 38.14802002 23.69676208 39.48809814 C23.69885681 40.16888428 23.70095154 40.84967041 23.70310974 41.55108643 C23.70845843 43.63172704 23.70316404 45.71215178 23.69676208 47.79278564 C23.69805115 49.09344971 23.69934021 50.39411377 23.70066833 51.73419189 C23.70179626 52.93753174 23.70292419 54.14087158 23.7040863 55.38067627 C23.51892107 58.05028672 23.51892107 58.05028672 24.83348083 59.14044189 C27.00610764 59.24000467 29.1820119 59.26843908 31.35691833 59.26983643 C32.03820801 59.27158875 32.71949768 59.27334106 33.4214325 59.27514648 C35.6838075 59.27956432 37.94610497 59.27662727 40.20848083 59.27325439 C41.77407344 59.27392745 43.33966594 59.2748975 44.90525818 59.27615356 C48.19058728 59.27763044 51.47588925 59.27547631 54.76121521 59.27081299 C58.981686 59.2651157 63.2020932 59.26839476 67.42256165 59.27438545 C70.65664655 59.27799134 73.89071628 59.27685235 77.12480164 59.27425766 C78.68140165 59.27358847 80.23800302 59.27441655 81.79460144 59.27673721 C83.96645279 59.27926419 86.1381998 59.27542254 88.31004333 59.26983643 C90.16750183 59.26864304 90.16750183 59.26864304 92.06248474 59.26742554 C94.74202826 59.45655967 94.74202826 59.45655967 95.83348083 58.14044189 C95.93351373 56.00691016 95.96429131 53.87006648 95.96629333 51.73419189 C95.9675824 50.43352783 95.96887146 49.13286377 95.97019958 47.79278564 C95.96810486 47.11199951 95.96601013 46.43121338 95.96385193 45.72979736 C95.95850324 43.64915675 95.96379763 41.56873201 95.97019958 39.48809814 C95.96891052 38.18743408 95.96762146 36.88677002 95.96629333 35.54669189 C95.96460144 33.74168213 95.96460144 33.74168213 95.96287537 31.90020752 C96.1480406 29.23059707 96.1480406 29.23059707 94.83348083 28.14044189 C92.66085403 28.04087912 90.48494977 28.01244471 88.31004333 28.01104736 C87.62875366 28.00929504 86.94746399 28.00754272 86.24552917 28.0057373 C83.98315417 28.00131947 81.7208567 28.00425652 79.45848083 28.00762939 C77.89288823 28.00695634 76.32729573 28.00598629 74.76170349 28.00473022 C71.47637439 28.00325335 68.19107242 28.00540748 64.90574646 28.0100708 C60.68527567 28.01576809 56.46486847 28.01248903 52.24440002 28.00649834 C49.01031512 28.00289245 45.77624539 28.00403143 42.54216003 28.00662613 C40.98556002 28.00729532 39.42895865 28.00646724 37.87236023 28.00414658 C35.70050888 28.00161959 33.52876187 28.00546125 31.35691833 28.01104736 C30.11861267 28.01184296 28.88030701 28.01263855 27.60447693 28.01345825 C24.92493341 27.82432412 24.92493341 27.82432412 23.83348083 29.14044189 Z " fill="#D40000" transform="translate(39.16651916503906,191.85955810546875)"/>
<path d="M0 0 C0.8956517 -0.0071553 1.79130341 -0.01431061 2.71409607 -0.02168274 C4.19995712 -0.02571609 4.19995712 -0.02571609 5.71583557 -0.02983093 C7.27203865 -0.03968773 7.27203865 -0.03968773 8.85968018 -0.04974365 C12.31246505 -0.06954224 15.76520618 -0.08115742 19.21803284 -0.09111023 C20.98521007 -0.09722352 20.98521007 -0.09722352 22.78808784 -0.10346031 C29.03060355 -0.12435484 35.2730971 -0.13863856 41.51564026 -0.147995 C47.95494489 -0.15903108 54.39390124 -0.19338924 60.83308315 -0.23316669 C65.78921127 -0.2593678 70.74525716 -0.26769026 75.70144844 -0.27127647 C78.0740041 -0.27613798 80.44655619 -0.28773943 82.81904411 -0.30631447 C86.15080249 -0.33076593 89.48167043 -0.3297288 92.81349182 -0.32279968 C93.78584778 -0.33560974 94.75820374 -0.3484198 95.76002502 -0.36161804 C104.09893722 -0.29874943 111.36296024 1.69057501 117.72193909 7.27217102 C123.97793148 14.18797399 125.4577077 22.426005 125.34303284 31.46748352 C125.34448807 32.41098663 125.3459433 33.35448975 125.34744263 34.32658386 C125.345795 36.30473444 125.3343627 38.28289939 125.31349182 40.26094055 C125.28444312 43.27175255 125.29292645 46.28080901 125.30592346 49.29170227 C125.2996872 51.22530449 125.29129714 53.15890121 125.28053284 55.09248352 C125.28346848 55.98226898 125.28640411 56.87205444 125.28942871 57.7888031 C125.16228175 66.2895286 122.77200938 73.8527457 116.84693909 80.14717102 C111.75813623 84.25607311 106.08111499 86.3721626 99.84693909 88.14717102 C104.70317528 94.94590168 110.13285178 101.18213233 115.62818909 107.46357727 C116.15726868 108.07394836 116.68634827 108.68431946 117.23146057 109.31318665 C118.32481459 110.55442518 119.43982876 111.77685959 120.57374573 112.9811554 C124.69651637 117.4603352 124.69651637 117.4603352 125.46803284 120.98310852 C125.4074469 121.82099915 125.34686096 122.65888977 125.28443909 123.52217102 C125.24190002 124.3755304 125.19936096 125.22888977 125.15553284 126.10810852 C124.84693909 128.14717102 124.84693909 128.14717102 123.84693909 129.14717102 C100.88989982 132.12818235 100.88989982 132.12818235 92.47731018 127.97822571 C88.78672814 124.97515311 86.4032321 121.17208425 84.03883362 117.08857727 C82.0914388 113.91658144 79.62297999 111.23610267 77.15943909 108.45967102 C76.25611892 107.39890768 75.35631169 106.33514175 74.46022034 105.26826477 C74.02661194 104.75247864 73.59300354 104.2366925 73.14625549 103.70527649 C70.30284107 100.29552999 67.51036814 96.8441401 64.72193909 93.38935852 C64.10318909 92.64943665 63.48443909 91.90951477 62.84693909 91.14717102 C62.29236023 90.34436707 62.29236023 90.34436707 61.72657776 89.52534485 C58.7309277 87.32889796 55.46618479 87.78054048 51.89772034 87.85420227 C50.73879524 87.86056953 50.73879524 87.86056953 49.55645752 87.86706543 C47.09042916 87.88384919 44.62522013 87.92149955 42.15943909 87.95967102 C40.48692485 87.97471831 38.8143978 87.98840664 37.14186096 88.00068665 C33.04323831 88.03375156 28.94522758 88.08553074 24.84693909 88.14717102 C24.82188293 89.35365295 24.79682678 90.56013489 24.77101135 91.80317688 C24.67711386 96.26292763 24.57685075 100.72251615 24.47462463 105.18208313 C24.43120867 107.11531287 24.38953866 109.04858261 24.34962463 110.98188782 C24.29208277 113.75455304 24.22834289 116.52701559 24.16334534 119.29951477 C24.1382766 120.6041996 24.1382766 120.6041996 24.11270142 121.9352417 C23.96081079 128.03329931 23.96081079 128.03329931 22.84693909 129.14717102 C20.85936881 129.2470016 18.86826389 129.27797855 16.87818909 129.27998352 C15.6677594 129.28127258 14.45732971 129.28256165 13.21022034 129.28388977 C11.93533752 129.28002258 10.66045471 129.2761554 9.34693909 129.27217102 C7.43461487 129.2779718 7.43461487 129.2779718 5.48365784 129.28388977 C3.66801331 129.28195618 3.66801331 129.28195618 1.81568909 129.27998352 C0.69613831 129.27885559 -0.42341248 129.27772766 -1.57688904 129.27656555 C-4.15306091 129.14717102 -4.15306091 129.14717102 -5.15306091 128.14717102 C-5.2513206 126.50458401 -5.27938054 124.8577577 -5.28004456 123.2122345 C-5.28286438 122.14370743 -5.2856842 121.07518036 -5.28858948 119.97427368 C-5.28656525 118.79189621 -5.28454102 117.60951874 -5.28245544 116.39131165 C-5.28420776 115.15406845 -5.28596008 113.91682526 -5.2877655 112.64208984 C-5.29142378 109.23927661 -5.29055054 105.83652382 -5.28738642 102.43371391 C-5.2848625 98.88006888 -5.28720044 95.3264265 -5.28877258 91.77278137 C-5.29059419 85.80398594 -5.28818821 79.83520286 -5.28343201 73.8664093 C-5.2779894 66.95622534 -5.27975206 60.04607087 -5.28525841 53.13588762 C-5.28978981 47.21318067 -5.29043996 41.29048261 -5.28781974 35.36777449 C-5.28625711 31.82591741 -5.28606282 28.28407422 -5.28935623 24.74221802 C-5.2927692 20.79581039 -5.28804478 16.84943606 -5.28245544 12.9030304 C-5.28447968 11.72065292 -5.28650391 10.53827545 -5.28858948 9.32006836 C-5.28576965 8.25154129 -5.28294983 7.18301422 -5.28004456 6.08210754 C-5.27966753 5.14778648 -5.2792905 4.21346542 -5.27890205 3.2508316 C-5.05360749 -0.51537144 -3.32816769 0.01817574 0 0 Z M23.84693909 29.14717102 C23.74690619 31.28070276 23.71612861 33.41754644 23.71412659 35.55342102 C23.71283752 36.85408508 23.71154846 38.15474915 23.71022034 39.49482727 C23.71231506 40.1756134 23.71440979 40.85639954 23.71656799 41.55781555 C23.72191668 43.63845617 23.71662229 45.71888091 23.71022034 47.79951477 C23.7115094 49.10017883 23.71279846 50.4008429 23.71412659 51.74092102 C23.71525452 52.94426086 23.71638245 54.14760071 23.71754456 55.3874054 C23.53237932 58.05701584 23.53237932 58.05701584 24.84693909 59.14717102 C27.01956589 59.2467338 29.19547015 59.27516821 31.37037659 59.27656555 C32.05166626 59.27831787 32.73295593 59.28007019 33.43489075 59.28187561 C35.69726576 59.28629344 37.95956322 59.2833564 40.22193909 59.27998352 C41.78753169 59.28065658 43.35312419 59.28162662 44.91871643 59.28288269 C48.20404554 59.28435957 51.4893475 59.28220543 54.77467346 59.27754211 C58.99514425 59.27184482 63.21555145 59.27512388 67.4360199 59.28111458 C70.67010481 59.28472046 73.90417453 59.28358148 77.13825989 59.28098679 C78.6948599 59.28031759 80.25146127 59.28114568 81.80805969 59.28346634 C83.97991105 59.28599332 86.15165805 59.28215167 88.32350159 59.27656555 C90.18096008 59.27537216 90.18096008 59.27537216 92.07594299 59.27415466 C94.75548651 59.46328879 94.75548651 59.46328879 95.84693909 58.14717102 C95.94697198 56.01363928 95.97774956 53.8767956 95.97975159 51.74092102 C95.98104065 50.44025696 95.98232971 49.1395929 95.98365784 47.79951477 C95.98156311 47.11872864 95.97946838 46.4379425 95.97731018 45.73652649 C95.97196149 43.65588587 95.97725589 41.57546113 95.98365784 39.49482727 C95.98236877 38.19416321 95.98107971 36.89349915 95.97975159 35.55342102 C95.97805969 33.74841125 95.97805969 33.74841125 95.97633362 31.90693665 C96.16149886 29.2373262 96.16149886 29.2373262 94.84693909 28.14717102 C92.67431228 28.04760824 90.49840803 28.01917383 88.32350159 28.01777649 C87.64221191 28.01602417 86.96092224 28.01427185 86.25898743 28.01246643 C83.99661242 28.0080486 81.73431496 28.01098564 79.47193909 28.01435852 C77.90634649 28.01368546 76.34075399 28.01271542 74.77516174 28.01145935 C71.48983264 28.00998247 68.20453067 28.01213661 64.91920471 28.01679993 C60.69873393 28.02249722 56.47832673 28.01921816 52.25785828 28.01322746 C49.02377337 28.00962158 45.78970364 28.01076056 42.55561829 28.01335526 C40.99901828 28.01402445 39.44241691 28.01319637 37.88581848 28.0108757 C35.71396713 28.00834872 33.54222013 28.01219037 31.37037659 28.01777649 C30.13207092 28.01857208 28.89376526 28.01936768 27.61793518 28.02018738 C24.93839167 27.83105325 24.93839167 27.83105325 23.84693909 29.14717102 Z " fill="#D40000" transform="translate(693.1530609130859,191.8528289794922)"/>
<path d="M0 0 C0.86716141 -0.0049649 1.73432281 -0.00992981 2.62776184 -0.01504517 C5.49428097 -0.02964054 8.36074475 -0.03646443 11.22729492 -0.04199219 C13.22263083 -0.04774581 15.21796673 -0.05350351 17.21330261 -0.05926514 C21.39708717 -0.06976766 25.58085255 -0.07561523 29.76464844 -0.07910156 C35.11786511 -0.08458465 40.47082724 -0.10861196 45.82396412 -0.13707352 C49.94614903 -0.15572423 54.06827291 -0.1609068 58.19049644 -0.16243744 C60.16360554 -0.165459 62.13671369 -0.17347072 64.10978127 -0.18662262 C66.87416418 -0.20373389 69.63792893 -0.20179046 72.40234375 -0.1953125 C73.21245911 -0.20452728 74.02257446 -0.21374207 74.85723877 -0.22323608 C83.0113344 -0.16357184 88.60158109 2.69149997 94.59838867 8.20019531 C100.91167974 15.08991731 101.54239692 23.10058052 101.55639648 32.11914062 C101.56136139 32.89399307 101.56632629 33.66884552 101.57144165 34.46717834 C101.58597829 37.01621407 101.59285126 39.56518755 101.59838867 42.11425781 C101.60262974 43.42773823 101.60262974 43.42773823 101.60695648 44.7677536 C101.6219153 49.40230101 101.63116545 54.03681757 101.63549805 58.67138672 C101.64097572 63.43685873 101.66499837 68.20204402 101.69347 72.9674263 C101.71217724 76.65137535 101.71730628 80.33525645 101.71883392 84.01924896 C101.72184308 85.77496659 101.72981224 87.53068353 101.7430191 89.28635406 C101.82511566 101.0393331 101.89226108 111.85482553 94.14135742 121.40332031 C87.51424437 128.07491064 81.02644559 129.30764768 71.9140625 129.33813477 C71.05986725 129.34470596 70.205672 129.35127716 69.32559204 129.35804749 C66.50115871 129.37774286 63.6767785 129.38943557 60.85229492 129.39941406 C59.40180032 129.40552735 59.40180032 129.40552735 57.92200279 129.41176414 C52.80233347 129.43261023 47.68269083 129.4469175 42.56298828 129.45629883 C37.28835954 129.46735186 32.01415396 129.50174333 26.73967457 129.54147053 C22.6723098 129.56767965 18.60504515 129.57599455 14.53760338 129.57958031 C12.59404332 129.58443622 10.65048743 129.59602167 8.70701027 129.6146183 C5.97881658 129.63909826 3.25170854 129.63802855 0.5234375 129.63110352 C-0.6669236 129.6503186 -0.6669236 129.6503186 -1.8813324 129.66992188 C-8.82993864 129.60605294 -14.70674019 127.50734331 -20.12817383 123.11816406 C-20.73918945 122.41046875 -21.35020508 121.70277344 -21.97973633 120.97363281 C-22.6062207 120.27882813 -23.23270508 119.58402344 -23.87817383 118.86816406 C-27.91406509 112.54039789 -29.05344084 105.90259762 -29.00878906 98.51123047 C-29.01565231 97.69853195 -29.02251556 96.88583344 -29.02958679 96.04850769 C-29.04772736 93.3905537 -29.0440353 90.73319728 -29.03833008 88.07519531 C-29.04289836 86.20868745 -29.04820584 84.34218127 -29.05421448 82.47567749 C-29.06312087 78.57388453 -29.06075113 74.67229651 -29.05078125 70.77050781 C-29.03930136 65.79545046 -29.05950073 60.82110396 -29.08869839 55.84613991 C-29.10713544 51.99398378 -29.10675292 48.14199559 -29.10106087 44.28980637 C-29.10090853 42.45677062 -29.1068793 40.62372284 -29.11935234 38.79072952 C-29.24650871 17.04162969 -29.24650871 17.04162969 -22.29223633 7.72363281 C-15.50045335 1.24774671 -9.13757076 0.0125149 0 0 Z M-0.60473633 29.16113281 C-0.70433785 31.36438255 -0.7327339 33.57086772 -0.73413086 35.77636719 C-0.73588318 36.46741043 -0.7376355 37.15845367 -0.73944092 37.87043762 C-0.74385887 40.16527789 -0.74092166 42.4600417 -0.73754883 44.75488281 C-0.73822188 46.34289566 -0.73919192 47.93090841 -0.740448 49.5189209 C-0.74192489 52.85132831 -0.73977069 56.18370897 -0.73510742 59.51611328 C-0.72941013 63.79711792 -0.73268918 68.07805986 -0.73867989 72.35906219 C-0.74228573 75.63947018 -0.74114681 78.91986319 -0.73855209 82.20027161 C-0.73788289 83.77920031 -0.73871103 85.35813035 -0.74103165 86.9370575 C-0.74355855 89.14004134 -0.73971708 91.3429223 -0.73413086 93.54589844 C-0.73333527 94.80196899 -0.73253967 96.05803955 -0.73171997 97.35217285 C-0.92546909 100.0652174 -0.92546909 100.0652174 0.39526367 101.16113281 C2.59851341 101.26073433 4.80499858 101.28913038 7.01049805 101.29052734 C8.04706291 101.29315582 8.04706291 101.29315582 9.10456848 101.2958374 C11.39940874 101.30025535 13.69417256 101.29731814 15.98901367 101.29394531 C17.57702652 101.29461837 19.16503927 101.29558841 20.75305176 101.29684448 C24.08545917 101.29832138 27.41783983 101.29616717 30.75024414 101.29150391 C35.03124877 101.28580662 39.31219072 101.28908567 43.59319305 101.29507637 C46.87360103 101.29868221 50.15399405 101.29754329 53.43440247 101.29494858 C55.01333117 101.29427937 56.59226121 101.29510751 58.17118835 101.29742813 C60.3741722 101.29995504 62.57705316 101.29611356 64.7800293 101.29052734 C66.03609985 101.28973175 67.29217041 101.28893616 68.58630371 101.28811646 C71.29934826 101.48186557 71.29934826 101.48186557 72.39526367 100.16113281 C72.49486519 97.95788308 72.52326124 95.75139791 72.5246582 93.54589844 C72.52641052 92.85485519 72.52816284 92.16381195 72.52996826 91.451828 C72.53438621 89.15698774 72.531449 86.86222392 72.52807617 84.56738281 C72.52874923 82.97936997 72.52971927 81.39135722 72.53097534 79.80334473 C72.53245224 76.47093731 72.53029803 73.13855665 72.52563477 69.80615234 C72.51993748 65.52514771 72.52321653 61.24420576 72.52920723 56.96320343 C72.53281307 53.68279545 72.53167415 50.40240244 72.52907944 47.12199402 C72.52841023 45.54306531 72.52923837 43.96413527 72.53155899 42.38520813 C72.5340859 40.18222429 72.53024442 37.97934333 72.5246582 35.77636719 C72.52386261 34.52029663 72.52306702 33.26422607 72.52224731 31.97009277 C72.71599643 29.25704822 72.71599643 29.25704822 71.39526367 28.16113281 C69.19201394 28.06153129 66.98552877 28.03313524 64.7800293 28.03173828 C63.74346443 28.0291098 63.74346443 28.0291098 62.68595886 28.02642822 C60.3911186 28.02201027 58.09635478 28.02494748 55.80151367 28.02832031 C54.21350083 28.02764726 52.62548808 28.02667722 51.03747559 28.02542114 C47.70506817 28.02394425 44.37268751 28.02609845 41.0402832 28.03076172 C36.75927857 28.03645901 32.47833662 28.03317996 28.19733429 28.02718925 C24.91692631 28.02358341 21.6365333 28.02472233 18.35612488 28.02731705 C16.77719617 28.02798625 15.19826613 28.02715811 13.61933899 28.02483749 C11.41635515 28.02231059 9.21347419 28.02615206 7.01049805 28.03173828 C5.75442749 28.03253387 4.49835693 28.03332947 3.20422363 28.03414917 C0.49117908 27.84040005 0.49117908 27.84040005 -0.60473633 29.16113281 Z " fill="#D40000" transform="translate(528.604736328125,191.8388671875)"/>
<path d="M0 0 C1.48919952 -0.00422974 1.48919952 -0.00422974 3.00848389 -0.00854492 C4.10670471 -0.00652069 5.20492554 -0.00449646 6.33642578 -0.00241089 C8.06061737 -0.00503937 8.06061737 -0.00503937 9.81964111 -0.00772095 C13.64035528 -0.01214226 17.4610236 -0.00920048 21.28173828 -0.00582886 C23.9235027 -0.00650182 26.56526705 -0.00747177 29.20703125 -0.00872803 C34.75212099 -0.01054957 40.29719743 -0.00814383 45.84228516 -0.00338745 C52.26168572 0.00205514 58.68105453 0.00029247 65.10045433 -0.00521386 C71.26474811 -0.01029062 77.42902776 -0.00976347 83.59332275 -0.00683212 C86.22170008 -0.00616257 88.8500782 -0.00699224 91.47845459 -0.00931168 C95.14467551 -0.01183655 98.8108345 -0.00799993 102.47705078 -0.00241089 C103.57527161 -0.00443512 104.67349243 -0.00645935 105.80499268 -0.00854492 C106.79779236 -0.0057251 107.79059204 -0.00290527 108.81347656 0 C109.68142853 0.00037703 110.54938049 0.00075405 111.44363403 0.0011425 C113.40673828 0.12698364 113.40673828 0.12698364 114.40673828 1.12698364 C114.50645614 3.04156646 114.53754417 4.95980681 114.53955078 6.87698364 C114.54083984 8.04229614 114.54212891 9.20760864 114.54345703 10.40823364 C114.53958984 11.63542114 114.53572266 12.86260864 114.53173828 14.12698364 C114.53560547 15.35417114 114.53947266 16.58135864 114.54345703 17.84573364 C114.54216797 19.01104614 114.54087891 20.17635864 114.53955078 21.37698364 C114.53842285 22.45463989 114.53729492 23.53229614 114.53613281 24.64260864 C114.40673828 27.12698364 114.40673828 27.12698364 113.40673828 28.12698364 C110.60765122 28.25219334 107.83203499 28.31307087 105.03149414 28.33230591 C104.15352676 28.34220551 103.27555939 28.3521051 102.37098694 28.36230469 C99.45454653 28.39401791 96.53808981 28.41871575 93.62158203 28.44338989 C91.60518458 28.46395095 89.58879151 28.48494719 87.57240295 28.50636292 C82.25413562 28.56167123 76.93582883 28.61104174 71.61749268 28.65921021 C66.19499177 28.70936144 60.77254846 28.76508072 55.35009766 28.82034302 C44.70235848 28.92803169 34.05457063 29.02893847 23.40673828 29.12698364 C23.40673828 35.72698364 23.40673828 42.32698364 23.40673828 49.12698364 C25.58259521 49.15203979 27.75845215 49.17709595 30.00024414 49.20291138 C37.17283 49.2862232 44.34534173 49.37492965 51.51782894 49.4663229 C55.86838634 49.52159149 60.2189504 49.57501764 64.56958008 49.6242981 C68.76470038 49.67188378 72.9597364 49.72422422 77.15475655 49.77992439 C78.75878373 49.8003743 80.36283405 49.81908294 81.96690178 49.83605766 C84.20596597 49.86004362 86.44486944 49.89010559 88.68383789 49.92166138 C89.96068954 49.93720566 91.2375412 49.95274994 92.55308533 49.96876526 C95.40673828 50.12698364 95.40673828 50.12698364 96.40673828 51.12698364 C96.50645614 53.04156646 96.53754417 54.95980681 96.53955078 56.87698364 C96.54083984 58.04229614 96.54212891 59.20760864 96.54345703 60.40823364 C96.53958984 61.63542114 96.53572266 62.86260864 96.53173828 64.12698364 C96.53560547 65.35417114 96.53947266 66.58135864 96.54345703 67.84573364 C96.54216797 69.01104614 96.54087891 70.17635864 96.53955078 71.37698364 C96.53842285 72.45463989 96.53729492 73.53229614 96.53613281 74.64260864 C96.40673828 77.12698364 96.40673828 77.12698364 95.40673828 78.12698364 C93.16816472 78.25109947 90.92568344 78.30501388 88.68383789 78.33230591 C87.98143478 78.34220551 87.27903168 78.3521051 86.55534363 78.36230469 C84.22329124 78.39400486 81.89121844 78.41871053 79.55908203 78.44338989 C77.94624793 78.46395209 76.33341932 78.48494835 74.72059631 78.50636292 C70.46764553 78.56165956 66.21464551 78.6110352 61.96160889 78.65921021 C57.62491453 78.70936995 53.28829202 78.76508479 48.95166016 78.82034302 C40.43674518 78.92801741 31.92176947 79.02892852 23.40673828 79.12698364 C23.40673828 86.05698364 23.40673828 92.98698364 23.40673828 100.12698364 C26.12786865 100.15203979 28.84899902 100.17709595 31.65258789 100.20291138 C40.62128965 100.28621238 49.58993198 100.37492018 58.55855465 100.4663229 C63.99873214 100.52159833 69.43891496 100.57502558 74.87915039 100.6242981 C80.12464304 100.67187367 85.37006808 100.72421374 90.61548042 100.77992439 C92.62142832 100.8003789 94.62739478 100.81908674 96.63337517 100.83605766 C99.43281677 100.86003341 102.23212931 100.8900969 105.03149414 100.92166138 C106.28845093 100.93029457 106.28845093 100.93029457 107.57080078 100.93910217 C113.29268612 101.01293148 113.29268612 101.01293148 114.40673828 102.12698364 C114.50645614 104.04156646 114.53754417 105.95980681 114.53955078 107.87698364 C114.54083984 109.04229614 114.54212891 110.20760864 114.54345703 111.40823364 C114.53958984 112.63542114 114.53572266 113.86260864 114.53173828 115.12698364 C114.53560547 116.35417114 114.53947266 117.58135864 114.54345703 118.84573364 C114.54216797 120.01104614 114.54087891 121.17635864 114.53955078 122.37698364 C114.53842285 123.45463989 114.53729492 124.53229614 114.53613281 125.64260864 C114.40673828 128.12698364 114.40673828 128.12698364 113.40673828 129.12698364 C111.87820338 129.22496752 110.34514864 129.25330195 108.81347656 129.25396729 C107.82067688 129.25678711 106.8278772 129.25960693 105.80499268 129.26251221 C104.70677185 129.26048798 103.60855103 129.25846375 102.47705078 129.25637817 C101.32758972 129.25813049 100.17812866 129.25988281 98.99383545 129.26168823 C95.17312128 129.26610955 91.35245296 129.26316777 87.53173828 129.25979614 C84.88997387 129.2604691 82.24820951 129.26143906 79.60644531 129.26269531 C74.06135557 129.26451685 68.51627913 129.26211111 62.97119141 129.25735474 C56.55179084 129.25191214 50.13242203 129.25367481 43.71302223 129.25918114 C37.54872845 129.2642579 31.3844488 129.26373075 25.22015381 129.26079941 C22.59177649 129.26012986 19.96339836 129.26095952 17.33502197 129.26327896 C13.66880105 129.26580384 10.00264206 129.26196721 6.33642578 129.25637817 C5.23820496 129.2584024 4.13998413 129.26042664 3.00848389 129.26251221 C1.51928436 129.25828247 1.51928436 129.25828247 0 129.25396729 C-0.86795197 129.25359026 -1.73590393 129.25321323 -2.63015747 129.25282478 C-4.59326172 129.12698364 -4.59326172 129.12698364 -5.59326172 128.12698364 C-5.6915214 126.48439664 -5.71958135 124.83757032 -5.72024536 123.19204712 C-5.72306519 122.12352005 -5.72588501 121.05499298 -5.72879028 119.9540863 C-5.72676605 118.77170883 -5.72474182 117.58933136 -5.72265625 116.37112427 C-5.72440857 115.13388107 -5.72616089 113.89663788 -5.72796631 112.62190247 C-5.73162458 109.21908923 -5.73075134 105.81633644 -5.72758722 102.41352654 C-5.72506331 98.8598815 -5.72740125 95.30623913 -5.72897339 91.75259399 C-5.73079499 85.78379856 -5.72838902 79.81501548 -5.72363281 73.84622192 C-5.71819021 66.93603796 -5.71995287 60.02588349 -5.72545922 53.11570024 C-5.72999061 47.19299329 -5.73064077 41.27029524 -5.72802055 35.34758711 C-5.72645792 31.80573003 -5.72626362 28.26388684 -5.72955704 24.72203064 C-5.73297 20.77562301 -5.72824558 16.82924868 -5.72265625 12.88284302 C-5.72468048 11.70046555 -5.72670471 10.51808807 -5.72879028 9.29988098 C-5.72597046 8.23135391 -5.72315063 7.16282684 -5.72024536 6.06192017 C-5.71986834 5.12759911 -5.71949131 4.19327805 -5.71910286 3.23064423 C-5.48375741 -0.70357739 -3.44157897 0.00149497 0 0 Z " fill="#D40000" transform="translate(188.59326171875,191.87301635742188)"/>
<path d="M0 0 C26.2537423 -2.63587 26.2537423 -2.63587 33.19189453 1.21728516 C36.65820979 4.80301415 38.12215534 9.45251061 39.79541016 14.06689453 C42.0044766 19.44584149 45.10213029 24.37091961 48.0552063 29.36755371 C49.75727399 32.26313235 51.41160827 35.18481985 53.0703125 38.10546875 C53.7187915 39.24314697 54.36727051 40.3808252 55.03540039 41.55297852 C56.34469376 43.85022136 57.65377595 46.14758458 58.96264648 48.44506836 C63.50672413 56.41136069 68.07946279 64.36038009 72.7019043 72.28149414 C73.45313796 73.57076238 74.20243485 74.86116079 74.94995117 76.15258789 C76.05204759 78.05616584 77.16010613 79.95615503 78.26953125 81.85546875 C78.91510986 82.96559326 79.56068848 84.07571777 80.22583008 85.21948242 C81.68352036 87.50400625 82.98260573 89.22287354 85 91 C85.57105469 89.95585937 86.14210938 88.91171875 86.73046875 87.8359375 C91.97251363 78.30124642 97.39454592 68.89310751 102.96069336 59.54418945 C106.98377795 52.76800321 110.89152202 45.93359154 114.75 39.0625 C119.04893423 31.4091573 123.43601092 23.82693676 127.9921875 16.32421875 C130.61555048 11.98086875 133.1548753 7.59223038 135.6875 3.1953125 C137 1 137 1 138 0 C140.21855264 -0.08783542 142.43988496 -0.10694609 144.66015625 -0.09765625 C145.65685585 -0.09553383 145.65685585 -0.09553383 146.6736908 -0.09336853 C148.80333899 -0.08775518 150.93288339 -0.07520054 153.0625 -0.0625 C154.50325369 -0.05748671 155.94400903 -0.05292351 157.38476562 -0.04882812 C160.92321102 -0.03778145 164.46159539 -0.02050792 168 0 C169.00316641 2.60710551 169.12326414 3.69383089 168.06298828 6.32739258 C167.57040527 7.17454834 167.07782227 8.0217041 166.5703125 8.89453125 C165.75530273 10.31572266 165.75530273 10.31572266 164.92382812 11.765625 C164.33021484 12.77109375 163.73660156 13.7765625 163.125 14.8125 C162.52365234 15.85277344 161.92230469 16.89304688 161.30273438 17.96484375 C157.75170238 24.08705078 154.13516042 30.1702799 150.45556641 36.21606445 C147.00940962 41.90541548 143.75804469 47.70143673 140.5 53.5 C136.64974839 60.35106173 132.7529391 67.15220666 128.66625977 73.86499023 C123.25283907 82.81529249 118.14092564 91.9463748 112.96484375 101.03515625 C112.31499512 102.17484863 111.66514648 103.31454102 110.99560547 104.48876953 C109.62146868 106.90166661 108.25758186 109.32005437 106.89892578 111.74169922 C105.54902733 114.14508761 104.18032559 116.53566934 102.78979492 118.91577148 C101.74901971 120.70926667 100.73356056 122.51888959 99.78637695 124.36352539 C98.1968418 127.15179739 96.60800246 128.76445185 93.61035156 129.92578125 C86.48430753 131.53401272 78.83551517 131.77507304 72 129 C65.60673912 123.36425328 62.24511162 115.13855458 58.69580078 107.54980469 C56.01443227 101.93691984 52.89691204 96.585748 49.8125 91.1875 C48.65721673 89.11028485 47.50354649 87.03217168 46.3515625 84.953125 C42.76788084 78.53934927 38.99756713 72.24771826 35.18896484 65.96582031 C31.80065095 60.36753868 28.54194139 54.71191439 25.35546875 48.99682617 C22.50719834 43.89048475 19.61266912 38.81269305 16.6875 33.75 C16.23721436 32.96802246 15.78692871 32.18604492 15.32299805 31.38037109 C12.81120744 27.04178356 10.24066912 22.74833677 7.59765625 18.48828125 C7.03925049 17.58174805 6.48084473 16.67521484 5.90551758 15.74121094 C4.82104492 13.98647948 3.72617352 12.23812249 2.61987305 10.49707031 C2.13172119 9.70526367 1.64356934 8.91345703 1.140625 8.09765625 C0.70266602 7.40164307 0.26470703 6.70562988 -0.18652344 5.98852539 C-1.17676976 3.56789025 -0.87829536 2.41666554 0 0 Z " fill="#D40000" transform="translate(319,192)"/>
<path d="M0 0 C1.21042969 -0.00128906 2.42085937 -0.00257813 3.66796875 -0.00390625 C4.94285156 -0.00003906 6.21773437 0.00382813 7.53125 0.0078125 C9.44357422 0.00201172 9.44357422 0.00201172 11.39453125 -0.00390625 C13.21017578 -0.00197266 13.21017578 -0.00197266 15.0625 0 C16.18205078 0.00112793 17.30160156 0.00225586 18.45507812 0.00341797 C21.03125 0.1328125 21.03125 0.1328125 22.03125 1.1328125 C22.12950968 2.77539951 22.15756963 4.42222583 22.15823364 6.06774902 C22.16105347 7.13627609 22.16387329 8.20480316 22.16677856 9.30570984 C22.16475433 10.48808731 22.1627301 11.67046478 22.16064453 12.88867188 C22.16239685 14.12591507 22.16414917 15.36315826 22.16595459 16.63789368 C22.16961286 20.04070691 22.16873962 23.4434597 22.1655755 26.84626961 C22.16305159 30.39991464 22.16538953 33.95355702 22.16696167 37.50720215 C22.16878327 43.47599758 22.1663773 49.44478066 22.16162109 55.41357422 C22.15617849 62.32375818 22.15794115 69.23391265 22.1634475 76.1440959 C22.16797889 82.06680285 22.16862905 87.98950091 22.16600883 93.91220903 C22.1644462 97.45406611 22.16425191 100.99590931 22.16754532 104.5377655 C22.17095828 108.48417313 22.16623386 112.43054746 22.16064453 116.37695312 C22.16266876 117.5593306 22.16469299 118.74170807 22.16677856 119.95991516 C22.16254883 121.56270576 22.16254883 121.56270576 22.15823364 123.19787598 C22.15785662 124.13219704 22.15747959 125.0665181 22.15709114 126.02915192 C22.03125 128.1328125 22.03125 128.1328125 21.03125 129.1328125 C19.04367972 129.23264308 17.0525748 129.26362003 15.0625 129.265625 C13.85207031 129.26691406 12.64164063 129.26820313 11.39453125 129.26953125 C10.11964844 129.26566406 8.84476563 129.26179687 7.53125 129.2578125 C5.61892578 129.26361328 5.61892578 129.26361328 3.66796875 129.26953125 C1.85232422 129.26759766 1.85232422 129.26759766 0 129.265625 C-1.11955078 129.26449707 -2.23910156 129.26336914 -3.39257812 129.26220703 C-5.96875 129.1328125 -5.96875 129.1328125 -6.96875 128.1328125 C-7.06700968 126.49022549 -7.09506963 124.84339917 -7.09573364 123.19787598 C-7.09855347 122.12934891 -7.10137329 121.06082184 -7.10427856 119.95991516 C-7.10225433 118.77753769 -7.1002301 117.59516022 -7.09814453 116.37695312 C-7.09989685 115.13970993 -7.10164917 113.90246674 -7.10345459 112.62773132 C-7.10711286 109.22491809 -7.10623962 105.8221653 -7.1030755 102.41935539 C-7.10055159 98.86571036 -7.10288953 95.31206798 -7.10446167 91.75842285 C-7.10628327 85.78962742 -7.1038773 79.82084434 -7.09912109 73.85205078 C-7.09367849 66.94186682 -7.09544115 60.03171235 -7.1009475 53.1215291 C-7.10547889 47.19882215 -7.10612905 41.27612409 -7.10350883 35.35341597 C-7.1019462 31.81155889 -7.10175191 28.26971569 -7.10504532 24.7278595 C-7.10845828 20.78145187 -7.10373386 16.83507754 -7.09814453 12.88867188 C-7.10016876 11.7062944 -7.10219299 10.52391693 -7.10427856 9.30570984 C-7.10145874 8.23718277 -7.09863892 7.1686557 -7.09573364 6.06774902 C-7.09535662 5.13342796 -7.09497959 4.1991069 -7.09459114 3.23647308 C-6.83250751 -1.14472525 -3.70258459 0.0037303 0 0 Z " fill="#D40000" transform="translate(655.96875,191.8671875)"/>
</svg>
